HIERARCHY
ROOT Hips
{
    OFFSET 0.000000 0.000000 0.000000
    CHANNELS 6 Xposition Yposition Zposition Zrotation Xrotation Yrotation
    JOINT Spine
    {
        OFFSET -0.000000 7.856138 0.000000
        CHANNELS 3 Zrotation Xrotation Yrotation
        JOINT Spine1
        {
            OFFSET -0.000000 20.830866 0.000000
            CHANNELS 3 Zrotation Xrotation Yrotation
            JOINT Neck
            {
                OFFSET -0.000000 20.745317 1.885938
                CHANNELS 3 Zrotation Xrotation Yrotation
                JOINT Head
                {
                    OFFSET -0.000000 13.412918 -1.916131
                    CHANNELS 3 Zrotation Xrotation Yrotation
                    End Site
                    {
                        OFFSET -0.000000 23.951641 0.000000
                    }
                }
            }
            JOINT LeftShoulder
            {
                OFFSET 3.826675 19.078362 -0.073511
                CHANNELS 3 Zrotation Xrotation Yrotation
                JOINT LeftArm
                {
                    OFFSET 10.442133 0.000000 0.000000
                    CHANNELS 3 Zrotation Xrotation Yrotation
                    JOINT LeftForeArm
                    {
                        OFFSET 37.051945 0.000000 0.000000
                        CHANNELS 3 Zrotation Xrotation Yrotation
                        JOINT LeftHand
                        {
                            OFFSET 24.394852 0.000000 0.000000
                            CHANNELS 3 Zrotation Xrotation Yrotation
                            End Site
                            {
                                OFFSET 14.370985 0.000000 0.000000
                            }
                        }
                    }
                }
            }
            JOINT RightShoulder
            {
                OFFSET -3.827599 19.078362 -0.073511
                CHANNELS 3 Zrotation Xrotation Yrotation
                JOINT RightArm
                {
                    OFFSET -10.442133 0.000000 0.000000
                    CHANNELS 3 Zrotation Xrotation Yrotation
                    JOINT RightForeArm
                    {
                        OFFSET -37.051945 0.000000 0.000000
                        CHANNELS 3 Zrotation Xrotation Yrotation
                        JOINT RightHand
                        {
                            OFFSET -24.394852 0.000000 0.000000
                            CHANNELS 3 Zrotation Xrotation Yrotation
                            End Site
                            {
                                OFFSET -14.370985 0.000000 0.000000
                            }
                        }
                    }
                }
            }
        }
    }
    JOINT LeftUpLeg
    {
        OFFSET 9.580656 0.000000 0.000000
        CHANNELS 3 Zrotation Xrotation Yrotation
        JOINT LeftLeg
        {
            OFFSET -0.000000 -43.769192 0.000000
            CHANNELS 3 Zrotation Xrotation Yrotation
            JOINT LeftFoot
            {
                OFFSET -0.000000 -42.531967 0.000000
                CHANNELS 3 Zrotation Xrotation Yrotation
                JOINT LeftToeBase
                {
                    OFFSET -0.000000 -6.227426 14.370985
                    CHANNELS 3 Zrotation Xrotation Yrotation
                    End Site
                    {
                        OFFSET -0.000000 0.000000 3.832262
                    }
                }
            }
        }
    }
    JOINT RightUpLeg
    {
        OFFSET -9.580656 0.000000 0.000000
        CHANNELS 3 Zrotation Xrotation Yrotation
        JOINT RightLeg
        {
            OFFSET -0.000000 -43.769192 0.000000
            CHANNELS 3 Zrotation Xrotation Yrotation
            JOINT RightFoot
            {
                OFFSET -0.000000 -42.531967 0.000000
                CHANNELS 3 Zrotation Xrotation Yrotation
                JOINT RightToeBase
                {
                    OFFSET -0.000000 -6.227426 14.370985
                    CHANNELS 3 Zrotation Xrotation Yrotation
                    End Site
                    {
                        OFFSET -0.000000 0.000000 3.832262
                    }
                }
            }
        }
    }
}
MOTION
Frames:    10
Frame Time:    0.008333
14.085761    92.682526    25.827864    -1.090743    -4.931189    89.921410    -0.753846    -1.695246    0.562029    4.951632    6.915867    0.273766    4.809068    5.253549    -4.011357    3.318252    -0.588737    -4.174285    -4.383414    14.561199    1.764321    -36.987278    56.797878    -32.714489    0.855867    -20.109028    -25.012836    -0.974287    -20.021608    11.338250    3.048615    14.644277    -0.641424    43.648209    58.680897    22.635620    -2.195137    -26.442007    23.154696    -6.802389    -25.316387    -13.417370    7.951999    -6.594057    -1.891506    -5.086416    11.759556    -2.777610    12.437059    -8.739133    23.017210    0.000000    0.000000    0.000000    -4.547423    -33.548927    1.695160    55.936478    78.425308    -51.589340    -0.020555    -21.340799    -9.773698    0.000000    0.000000    0.000000    
14.218232    92.715302    25.803493    -0.989224    -4.896376    90.008797    -0.608241    -1.708626    0.497029    4.806777    6.933262    0.214846    4.989688    5.151392    -4.024175    3.108141    -0.415918    -4.246288    -4.261921    14.546605    1.794223    -36.669861    56.919914    -32.926899    0.744890    -19.813009    -24.984251    -0.702838    -19.721987    11.092398    3.147605    14.515494    -0.701100    43.859459    58.573006    22.284340    -2.112480    -26.578047    23.270834    -7.211024    -25.414225    -13.577392    7.918787    -6.047687    -1.471825    -4.985964    11.038844    -2.851199    12.181163    -8.653856    22.525282    0.000000    0.000000    0.000000    -4.717079    -33.610081    1.452092    61.727386    79.169434    -56.666107    -0.677564    -21.844543    -10.477068    0.000000    0.000000    0.000000    
14.334350    92.744652    25.771273    -0.907737    -4.878853    90.020912    -0.616841    -1.535614    0.524211    5.061571    6.544516    0.242980    4.696591    5.343857    -4.164633    3.359266    -0.340264    -4.319746    -4.449496    14.765141    1.642868    -36.488895    56.993755    -32.923153    0.939733    -19.570181    -24.773874    -1.032828    -19.466499    10.654818    3.090564    14.564480    -0.897046    44.089233    58.379944    21.875059    -2.078862    -26.724777    23.409765    -7.385269    -25.544390    -13.630106    7.889092    -5.568726    -1.055926    -4.888625    10.459358    -3.325450    12.031192    -8.537826    22.528002    0.000000    0.000000    0.000000    -4.850914    -33.680882    1.364714    67.345818    79.546539    -62.238869    -1.336606    -22.104719    -10.512276    0.000000    0.000000    0.000000    
14.461767    92.751404    25.737663    -0.824767    -4.785902    90.057838    -0.428071    -1.564519    0.439149    4.856871    6.531945    0.167764    4.804966    5.339443    -4.125947    3.022404    -0.244604    -4.342091    -4.448314    14.695680    1.770291    -36.232243    57.290531    -32.944084    1.129964    -19.536760    -24.762873    -0.958591    -19.388342    10.794920    3.090725    14.622680    -0.793539    44.330879    57.964603    21.619986    -1.894340    -26.748848    23.584398    -8.068881    -25.503994    -13.977693    7.783826    -5.085240    -0.747981    -4.820564    9.796144    -3.013379    11.804265    -8.518824    21.850489    0.000000    0.000000    0.000000    -5.059559    -33.675003    1.107587    72.185806    79.960777    -66.372711    -1.624533    -22.456306    -11.121278    0.000000    0.000000    0.000000    
14.567622    92.739037    25.711828    -0.775887    -4.665220    90.106613    -0.250223    -1.663307    0.330916    4.651551    6.656819    0.064026    4.776594    5.257570    -4.064594    2.845938    -0.163187    -4.306379    -4.417963    14.571838    2.015325    -35.905029    57.649883    -33.079704    1.427018    -19.601355    -24.768320    -1.117136    -19.403061    10.526821    2.941883    14.593947    -0.682867    44.563011    57.628788    21.529871    -1.906845    -26.691996    23.610218    -8.135639    -25.443703    -13.864822    7.644737    -4.718845    -0.455768    -4.744990    9.300477    -3.130965    11.660276    -8.504727    21.610174    0.000000    0.000000    0.000000    -5.267667    -33.685070    0.824408    76.283737    80.276154    -70.241623    -1.885554    -22.739105    -11.285499    0.000000    0.000000    0.000000    
14.672133    92.710487    25.704464    -0.750812    -4.507543    90.238708    -0.174645    -1.845718    0.197220    4.487146    6.898213    -0.070634    4.605027    5.181802    -4.053637    3.000495    -0.151649    -4.258717    -4.258731    14.426717    2.171510    -35.915478    57.670929    -33.009418    1.511742    -19.537777    -24.879816    -0.806796    -19.294788    10.735644    2.834408    14.512196    -0.539449    44.809200    57.231186    21.375904    -1.795999    -26.714603    23.749826    -8.358319    -25.465425    -13.795844    7.481980    -4.450362    -0.261273    -4.693509    8.914873    -3.295222    11.532901    -8.520985    21.427799    0.000000    0.000000    0.000000    -5.545979    -33.635567    0.486635    79.178925    80.436882    -72.889236    -2.400279    -22.838072    -11.602783    0.000000    0.000000    0.000000    
14.766136    92.676506    25.697922    -0.763098    -4.349834    90.311218    -0.097801    -2.023202    0.097181    4.348967    7.077809    -0.170067    4.370446    5.085122    -4.018094    3.204885    -0.126006    -4.172807    -4.269748    14.245996    2.506916    -35.745007    57.613186    -33.057983    1.429353    -19.439756    -24.792240    -0.487969    -19.186102    10.616670    2.700203    14.472214    -0.410598    45.041359    56.880344    21.273838    -1.664253    -26.787941    23.876600    -8.789859    -25.509899    -13.874676    7.326346    -4.251607    -0.078536    -4.663638    8.605371    -3.489263    11.514840    -8.527267    21.345905    0.000000    0.000000    0.000000    -5.773863    -33.573841    0.207085    80.526581    80.514816    -74.081482    -2.349923    -23.155428    -11.674168    0.000000    0.000000    0.000000    
14.852391    92.640305    25.691818    -0.804477    -4.178809    90.305206    -0.152277    -2.158104    0.115822    4.405542    7.129206    -0.155808    4.252668    5.021783    -4.041202    3.161189    -0.027927    -4.196090    -4.257957    14.170286    2.557274    -35.964821    57.351170    -32.886665    1.423294    -19.406610    -24.501539    -0.404339    -19.150080    10.520116    2.667394    14.492324    -0.404968    45.118790    56.396061    21.119534    -1.329292    -26.648388    24.039274    -9.119725    -25.403494    -13.752140    7.160046    -4.092962    0.181615    -4.631671    8.325824    -3.399784    11.438791    -8.589865    20.976015    0.000000    0.000000    0.000000    -5.923140    -33.495647    0.020057    80.134506    80.587326    -73.650368    -2.417384    -23.363306    -11.824363    0.000000    0.000000    0.000000    
14.947335    92.584961    25.687180    -0.838967    -3.962006    90.339951    -0.256026    -2.360983    0.138397    4.487898    7.322968    -0.143548    4.267852    4.987533    -4.080681    2.893538    -0.080169    -4.276994    -4.252844    14.052214    2.591799    -36.207592    56.872269    -32.748966    1.228083    -19.236778    -24.102001    0.020448    -18.987364    10.322378    2.550738    14.353196    -0.451470    45.296139    56.088833    20.954416    -1.118036    -26.694117    24.151669    -9.246675    -25.479506    -13.696390    6.931130    -3.943950    0.177581    -4.610442    8.108383    -3.758254    11.563423    -8.579131    21.284349    0.000000    0.000000    0.000000    -6.103271    -33.353500    -0.190473    78.002312    80.627281    -71.584435    -2.426061    -23.542076    -11.905610    0.000000    0.000000    0.000000    
15.027952    92.526154    25.667679    -0.908297    -3.721038    90.345619    -0.314287    -2.446917    0.211787    4.427509    7.210410    -0.060473    4.113906    5.045332    -4.175904    3.071133    -0.006565    -4.334484    -4.285264    14.111955    2.556061    -36.453861    56.416931    -32.545204    1.221413    -19.311821    -23.613054    0.096523    -19.062656    10.141694    2.687913    14.357488    -0.515949    45.373112    56.165928    20.731031    -1.256010    -27.033710    24.086880    -9.312499    -25.797382    -13.591488    6.660185    -3.868991    0.170754    -4.573534    7.909547    -3.501354    11.602527    -8.637747    21.012993    0.000000    0.000000    0.000000    -6.285473    -33.184418    -0.360028    73.882362    80.548553    -67.652222    -2.566931    -23.675060    -11.946743    0.000000    0.000000    0.000000    
